<svg id="Crop_Marks" data-name="Crop Marks" xmlns="http://www.w3.org/2000/svg" viewBox="0 0 268.92 252"><defs><style>.cls-1{fill:#212529;}</style></defs><title>LogoSVG</title><path class="cls-1" d="M217.25,109.1c-9-11.34-5.53-22,7.9-27.81,11.49-4.94,23.25-4.2,34.77-.52,8.85,2.83,17.39,6.65,28,10.78-.52-4.66-.31-8.64-1.49-12.15-2.94-8.75-10.05-13.33-18.1-17C250.17,54,232.2,45.14,221.38,27.2,204.74-.38,160.27-10,131.74,12.51a160.79,160.79,0,0,0-39,44.58c-25.65,43.15-44,89.42-58.26,137.39C29,212.86,24.25,232.38,19,252c19.89,0,38.26,0,56.78,0,5.13-58.57,15.61-115.74,56.48-162.66-15.43,1-27.11,6.42-35.28,17.24-5.23,6.93-9.12,15.09-12.49,23.17-5.09,12.2-9.21,24.81-13.74,37.24a240.79,240.79,0,0,1,4.16-26.92C80,114.25,87.67,89.31,99.57,65.75c7.26-14.34,18.33-24.06,34.05-27.8,7.59-1.8,11.4,1.54,10.3,9.24-.73,5.05-3,10-5.07,14.7-6,13.59-4.32,16.46,9.93,19.91,13.09,3.17,26.06,7,38.82,11.26,3.53,1.18,6.91,4.62,9,7.9,4.5,7.07,7.16,15.46,12.25,22,28.22,36.24,47.61,75.58,45.62,122.94-.07,1.58-.11,4.28-.15,6.11,2,0,3,0,5.73,0s3.52,0,6.76,0a31.39,31.39,0,0,0,.06-5.93c-.51-7.42-.62-14.93-1.91-22.23C257.55,182.1,244.13,142.88,217.25,109.1ZM172.67,47.17c-2.41-4,1-6.81,3.36-7.16,5.71-1.14,11.6-1.19,17.44,4.21,1,.86,3.24,4,2.24,5.9C192.43,53.38,178.06,53,172.67,47.17Z" transform="translate(-19 0)"/><path class="cls-1" d="M193.36,45c-5.85-5.4-11.73-5.35-17.44-4.2C181.75,39.64,187.7,40.16,193.36,45Z" transform="translate(-19 0)"/><path class="cls-1" d="M94.72,242.87c2.61-25.76,5.72-51.47,15.13-75.84,7.08-18.35,14.72-36.48,22.11-54.7C94.05,151.05,91.06,203.22,80.53,252H92.84C93.57,250.64,94.36,246.42,94.72,242.87Z" transform="translate(-19 0)"/></svg>